<?xml version="1.0" encoding="UTF-8"?>
<svg width="100px" height="98px" viewBox="0 0 100 98" version="1.1" xmlns="http://www.w3.org/2000/svg" xmlns:xlink="http://www.w3.org/1999/xlink">
    <!-- Generator: Sketch 55.2 (78181) - https://sketchapp.com -->
    <title>Path</title>
    <desc>Created with Sketch.</desc>
    <g id="Page-1" stroke="none" stroke-width="1" fill="none" fill-rule="evenodd">
        <g id="various" transform="translate(-263.000000, -83.000000)" fill="#FFFFFF" fill-rule="nonzero">
            <g id="github" transform="translate(263.000000, 83.000000)">
                <path d="M50,0.2375 C22.375,0.2375 0,22.625 0,50.2375 C0,72.3333333 14.325,91.0708333 34.1875,97.675 C36.6875,98.1458333 37.6041667,96.6 37.6041667,95.2708333 C37.6041667,94.0833333 37.5625,90.9375 37.5416667,86.7708333 C23.6333333,89.7875 20.7,80.0625 20.7,80.0625 C18.425,74.2916667 15.1375,72.75 15.1375,72.75 C10.6083333,69.65 15.4875,69.7125 15.4875,69.7125 C20.5083333,70.0625 23.1458333,74.8625 23.1458333,74.8625 C27.6041667,82.5083333 34.85,80.3 37.7083333,79.0208333 C38.1583333,75.7875 39.4458333,73.5833333 40.875,72.3333333 C29.7708333,71.0833333 18.1,66.7833333 18.1,47.625 C18.1,42.1666667 20.0375,37.7083333 23.2458333,34.2083333 C22.6833333,32.9458333 20.9958333,27.8625 23.6833333,20.975 C23.6833333,20.975 27.8708333,19.6333333 37.4333333,26.1 C41.4333333,24.9875 45.6833333,24.4375 49.9333333,24.4125 C54.1833333,24.4375 58.4333333,24.9875 62.4333333,26.1 C71.9333333,19.6333333 76.1208333,20.975 76.1208333,20.975 C78.8083333,27.8625 77.1208333,32.9458333 76.6208333,34.2083333 C79.8083333,37.7083333 81.7458333,42.1666667 81.7458333,47.625 C81.7458333,66.8333333 70.0583333,71.0625 58.9333333,72.2916667 C60.6833333,73.7916667 62.3083333,76.8583333 62.3083333,81.5416667 C62.3083333,88.2333333 62.2458333,93.6083333 62.2458333,95.2333333 C62.2458333,96.5458333 63.1208333,98.1083333 65.6833333,97.6083333 C85.6875,91.05 100,72.3 100,50.2375 C100,22.625 77.6125,0.2375 50,0.2375" id="Path"></path>
            </g>
        </g>
    </g>
</svg>