<?xml version="1.0" encoding="UTF-8" standalone="no"?>
<!DOCTYPE svg PUBLIC "-//W3C//DTD SVG 1.1//EN" "http://www.w3.org/Graphics/SVG/1.1/DTD/svg11.dtd">
<svg width="100%" height="100%" viewBox="0 0 1159 1159" version="1.1" xmlns="http://www.w3.org/2000/svg" xmlns:xlink="http://www.w3.org/1999/xlink" xml:space="preserve" xmlns:serif="http://www.serif.com/" style="fill-rule:evenodd;clip-rule:evenodd;stroke-linejoin:round;stroke-miterlimit:2;">
    <g transform="matrix(1,0,0,1,-532.991,-254.991)">
        <g transform="matrix(1,0,0,1,96.5286,-29.9773)">
            <g transform="matrix(1.16082,0,0,1.16082,-108.531,-120.913)">
                <path d="M968.284,349.651L1030.63,454.807L1122.42,374.064L1149.22,493.339L1261.47,444.912L1250.1,566.631L1371.82,555.261L1323.39,667.509L1442.66,694.309L1361.92,786.098L1467.08,848.444L1361.92,910.79L1442.66,1002.58L1323.39,1029.38L1371.82,1141.63L1250.1,1130.26L1261.47,1251.98L1149.22,1203.55L1122.42,1322.83L1030.63,1242.08L968.284,1347.24L905.938,1242.08L814.149,1322.83L787.349,1203.55L675.101,1251.98L686.471,1130.26L564.752,1141.63L613.178,1029.38L493.903,1002.58L574.646,910.79L469.491,848.444L574.646,786.098L493.903,694.309L613.178,667.509L564.752,555.261L686.471,566.631L675.101,444.912L787.349,493.339L814.149,374.064L905.938,454.807L968.284,349.651Z" style="fill:rgb(228,36,249);"/>
            </g>
            <g transform="matrix(1,0,0,1,-96.5286,29.9773)">
                <path d="M809.112,1215.24L809.112,1128.04C852.328,1128.04 881.552,1121.85 896.786,1109.47C912.019,1097.09 919.636,1074.86 919.636,1042.8L919.636,712.787L857.081,712.787L857.081,632.239L1000.67,632.239L1000.67,1041.24C1000.67,1101.19 985.054,1145.18 953.831,1173.2C922.607,1201.22 874.368,1215.24 809.112,1215.24ZM1139.39,1058.83L1093.69,1058.83L1093.69,476.225L1174.72,452.765L1174.72,648.27C1196.33,632.369 1219.88,624.418 1245.37,624.418C1296.15,624.418 1337.1,643.773 1368.21,682.483C1399.33,721.193 1414.89,770.787 1414.89,831.263C1414.89,901.384 1399.22,956.842 1367.89,997.638C1336.56,1038.43 1294.1,1058.83 1240.51,1058.83C1208.32,1058.83 1180.66,1048.53 1157.54,1027.94L1139.39,1058.83ZM1174.72,731.946L1174.72,950.521C1186.6,967.465 1202.7,975.937 1223.01,975.937C1262.12,975.937 1289.83,964.728 1306.15,942.31C1322.46,919.892 1330.62,884.049 1330.62,834.782C1330.62,749.802 1296.91,707.313 1229.49,707.313C1205.51,707.313 1187.25,715.524 1174.72,731.946ZM957.558,469.969C970.523,469.969 981.597,475.508 990.78,486.587C999.963,497.666 1004.56,511.025 1004.56,526.666C1004.56,542.306 999.963,555.666 990.78,566.744C981.597,577.823 970.523,583.362 957.558,583.362C944.593,583.362 933.519,577.823 924.336,566.744C915.153,555.666 910.561,542.306 910.561,526.666C910.561,511.025 915.153,497.666 924.336,486.587C933.519,475.508 944.593,469.969 957.558,469.969Z" style="fill:white;fill-rule:nonzero;"/>
            </g>
        </g>
    </g>
</svg>
