<?xml version="1.0" encoding="UTF-8" standalone="no"?>
<!DOCTYPE svg PUBLIC "-//W3C//DTD SVG 1.1//EN" "http://www.w3.org/Graphics/SVG/1.1/DTD/svg11.dtd">
<svg width="100%" height="100%" viewBox="0 0 1159 1159" version="1.1" xmlns="http://www.w3.org/2000/svg" xmlns:xlink="http://www.w3.org/1999/xlink" xml:space="preserve" xmlns:serif="http://www.serif.com/" style="fill-rule:evenodd;clip-rule:evenodd;stroke-linejoin:round;stroke-miterlimit:2;">
    <g transform="matrix(1,0,0,1,-532.991,-254.991)">
        <g transform="matrix(1,0,0,1,96.5286,-29.9773)">
            <g transform="matrix(1.16082,0,0,1.16082,-108.531,-120.913)">
                <path d="M968.284,349.651L1030.63,454.807L1122.42,374.064L1149.22,493.339L1261.47,444.912L1250.1,566.631L1371.82,555.261L1323.39,667.509L1442.66,694.309L1361.92,786.098L1467.08,848.444L1361.92,910.79L1442.66,1002.58L1323.39,1029.38L1371.82,1141.63L1250.1,1130.26L1261.47,1251.98L1149.22,1203.55L1122.42,1322.83L1030.63,1242.08L968.284,1347.24L905.938,1242.08L814.149,1322.83L787.349,1203.55L675.101,1251.98L686.471,1130.26L564.752,1141.63L613.178,1029.38L493.903,1002.58L574.646,910.79L469.491,848.444L574.646,786.098L493.903,694.309L613.178,667.509L564.752,555.261L686.471,566.631L675.101,444.912L787.349,493.339L814.149,374.064L905.938,454.807L968.284,349.651Z" style="fill:rgb(216,0,255);"/>
            </g>
            <g transform="matrix(1.03672,0,0,1.25068,-187.725,-97.9924)">
                <text x="872.173px" y="942.671px" style="font-family:'TrebuchetMS-Bold', 'Trebuchet MS', sans-serif;font-weight:700;font-size:640.283px;fill:white;">jb</text>
            </g>
        </g>
    </g>
</svg>
