<?xml version="1.0" encoding="UTF-8"?>
<svg width="84px" height="68px" viewBox="0 0 84 68" version="1.1" xmlns="http://www.w3.org/2000/svg" xmlns:xlink="http://www.w3.org/1999/xlink">
    <!-- Generator: Sketch 55.2 (78181) - https://sketchapp.com -->
    <title>mail</title>
    <desc>Created with Sketch.</desc>
    <g id="Page-1" stroke="none" stroke-width="1" fill="none" fill-rule="evenodd">
        <g id="various" transform="translate(-288.000000, -185.000000)">
            <g id="mail" transform="translate(280.000000, 169.000000)">
                <polygon id="Shape" points="0 0 100 0 100 100 0 100"></polygon>
                <path d="M83.3333333,16.6666667 L16.6666667,16.6666667 C12.0833333,16.6666667 8.375,20.4166667 8.375,25 L8.33333333,75 C8.33333333,79.5833333 12.0833333,83.3333333 16.6666667,83.3333333 L83.3333333,83.3333333 C87.9166667,83.3333333 91.6666667,79.5833333 91.6666667,75 L91.6666667,25 C91.6666667,20.4166667 87.9166667,16.6666667 83.3333333,16.6666667 Z M83.3333333,75 L16.6666667,75 L16.6666667,33.3333333 L50,54.1666667 L83.3333333,33.3333333 L83.3333333,75 Z M50,45.8333333 L16.6666667,25 L83.3333333,25 L50,45.8333333 Z" id="Shape" fill="#FFFFFF" fill-rule="nonzero"></path>
            </g>
        </g>
    </g>
</svg>