<?xml version="1.0" encoding="UTF-8"?>
<svg width="100px" height="125px" viewBox="0 0 100 125" version="1.1" xmlns="http://www.w3.org/2000/svg" xmlns:xlink="http://www.w3.org/1999/xlink">
    <!-- Generator: Sketch 55.2 (78181) - https://sketchapp.com -->
    <title>web</title>
    <desc>Created with Sketch.</desc>
    <g id="Page-1" stroke="none" stroke-width="1" fill="none" fill-rule="evenodd">
        <g id="various" transform="translate(-265.000000, -362.000000)" fill="#9BFDF3" fill-rule="nonzero">
            <g id="web" transform="translate(265.000000, 362.000000)">
                <path d="M89.5833333,0 L10.4166667,0 C4.66666667,0.00677083333 0.00677083333,4.66666667 0,10.4166667 L0,66.6666667 C0.00677083333,72.4166667 4.66666667,77.0765625 10.4166667,77.0833333 L38.9041667,77.0833333 L35.9291667,87.5 L29.1666667,87.5 L29.1666667,91.6666667 L70.8333333,91.6666667 L70.8333333,87.5 L64.0708333,87.5 L61.0958333,77.0833333 L89.5833333,77.0833333 C95.3333333,77.0765625 99.9932292,72.4166667 100,66.6666667 L100,10.4166667 C99.9932292,4.66666667 95.3333333,0.00677083333 89.5833333,0 Z M40.2625,87.5 L43.2375,77.0833333 L56.7625,77.0833333 L59.7375,87.5 L40.2625,87.5 Z M95.8333333,66.6666667 C95.8333333,70.1184896 93.0351562,72.9166667 89.5833333,72.9166667 L10.4166667,72.9166667 C6.96484375,72.9166667 4.16666667,70.1184896 4.16666667,66.6666667 L4.16666667,62.5 L95.8333333,62.5 L95.8333333,66.6666667 Z M95.8333333,58.3333333 L4.16666667,58.3333333 L4.16666667,10.4166667 C4.16666667,6.96484375 6.96484375,4.16666667 10.4166667,4.16666667 L89.5833333,4.16666667 C93.0351562,4.16666667 95.8333333,6.96484375 95.8333333,10.4166667 L95.8333333,58.3333333 Z" id="Shape"></path>
                <path d="M66.6666667,95.8333333 L8.33333333,95.8333333 C7.1828125,95.8333333 6.25,96.7661458 6.25,97.9166667 L6.25,122.916667 C6.25,124.067188 7.1828125,125 8.33333333,125 L66.6666667,125 C67.8171875,125 68.75,124.067188 68.75,122.916667 L68.75,97.9166667 C68.75,96.7661458 67.8171875,95.8333333 66.6666667,95.8333333 Z M64.5833333,120.833333 L10.4166667,120.833333 L10.4166667,100 L64.5833333,100 L64.5833333,120.833333 Z" id="Shape"></path>
                <rect id="Rectangle" x="14.5833333" y="112.5" width="4.16666667" height="4.16666667"></rect>
                <rect id="Rectangle" x="14.5833333" y="104.166667" width="4.16666667" height="4.16666667"></rect>
                <rect id="Rectangle" x="22.9166667" y="104.166667" width="4.16666667" height="4.16666667"></rect>
                <rect id="Rectangle" x="31.25" y="104.166667" width="4.16666667" height="4.16666667"></rect>
                <rect id="Rectangle" x="47.9166667" y="104.166667" width="4.16666667" height="4.16666667"></rect>
                <rect id="Rectangle" x="39.5833333" y="104.166667" width="4.16666667" height="4.16666667"></rect>
                <rect id="Rectangle" x="56.25" y="112.5" width="4.16666667" height="4.16666667"></rect>
                <rect id="Rectangle" x="56.25" y="104.166667" width="4.16666667" height="4.16666667"></rect>
                <rect id="Rectangle" x="22.9166667" y="112.5" width="29.1666667" height="4.16666667"></rect>
                <path d="M83.3333333,95.8333333 C77.5804687,95.8333333 72.9166667,100.497135 72.9166667,106.25 L72.9166667,114.583333 C72.9166667,120.336198 77.5804687,125 83.3333333,125 C89.0861979,125 93.75,120.336198 93.75,114.583333 L93.75,106.25 C93.75,100.497135 89.0861979,95.8333333 83.3333333,95.8333333 Z M89.5833333,114.583333 C89.5833333,118.035156 86.7851562,120.833333 83.3333333,120.833333 C79.8815104,120.833333 77.0833333,118.035156 77.0833333,114.583333 L77.0833333,106.25 C77.0833333,102.798177 79.8815104,100 83.3333333,100 C86.7851562,100 89.5833333,102.798177 89.5833333,106.25 L89.5833333,114.583333 Z" id="Shape"></path>
                <rect id="Rectangle" x="81.25" y="104.166667" width="4.16666667" height="4.16666667"></rect>
                <polygon id="Rectangle" transform="translate(49.985928, 33.368782) rotate(-74.031780) translate(-49.985928, -33.368782) " points="34.8259997 31.2863915 65.145857 31.2863915 65.145857 35.4511727 34.8259997 35.4511727"></polygon>
                <path d="M38.8333333,24.5166667 L36.1666667,21.3166667 L23.6666667,31.7333333 C22.7830729,32.4703125 22.6640625,33.7838542 23.4010417,34.6677083 C23.4815104,34.7640625 23.5703125,34.853125 23.6666667,34.9333333 L36.1666667,45.35 L38.8333333,42.15 L28.2541667,33.3333333 L38.8333333,24.5166667 Z" id="Path"></path>
                <path d="M76.5989583,31.9989583 C76.5184896,31.9026042 76.4296875,31.8135417 76.3333333,31.7333333 L63.8333333,21.3166667 L61.1666667,24.5166667 L71.7458333,33.3333333 L61.1666667,42.15 L63.8333333,45.35 L76.3333333,34.9333333 C77.2169271,34.1963542 77.3359375,32.8828125 76.5989583,31.9989583 Z" id="Path"></path>
            </g>
        </g>
    </g>
</svg>